<?xml version="1.0" encoding="UTF-8"?><svg id="Warstwa_1" xmlns="http://www.w3.org/2000/svg" width="287.1" height="89.2" viewBox="0 0 287.1 89.2"><path d="M87.64,73.17l11.02-58.32h14.69l10.87,58.32h-11.88l-1.94-12.31h-8.57l-2.02,12.31h-12.17ZM102.97,53.16h6.19l-3.1-22.75-3.1,22.75h0Z" fill="#e83f4b" stroke-width="0"/><path d="M129.54,73.17V14.85h12.89v23.83l9.79-23.83h12.6l-10.8,26.35,11.3,31.97h-13.1l-8.42-25.78-1.37,2.3v23.47h-12.89Z" fill="#e83f4b" stroke-width="0"/><path d="M185.63,74.04c-4.42,0-7.91-.8-10.48-2.41-2.57-1.61-4.38-3.86-5.44-6.77-1.06-2.9-1.58-6.32-1.58-10.26v-21.02c0-4.03.53-7.5,1.58-10.4,1.06-2.9,2.87-5.15,5.44-6.73s6.06-2.38,10.48-2.38,7.69.71,10.12,2.12c2.42,1.42,4.14,3.4,5.15,5.94,1.01,2.54,1.51,5.47,1.51,8.78v5.04h-12.6v-5.83c0-1.15-.06-2.26-.18-3.31s-.47-1.93-1.04-2.63c-.58-.7-1.56-1.04-2.95-1.04s-2.34.36-2.99,1.08c-.65.72-1.06,1.62-1.22,2.7-.17,1.08-.25,2.22-.25,3.42v27.43c0,1.3.11,2.48.32,3.56.22,1.08.65,1.94,1.3,2.59.65.65,1.6.97,2.84.97,1.34,0,2.3-.35,2.88-1.04.58-.7.94-1.6,1.08-2.7.14-1.1.22-2.23.22-3.38v-6.12h12.6v5.04c0,3.31-.49,6.28-1.48,8.89-.98,2.62-2.69,4.68-5.11,6.19s-5.82,2.27-10.19,2.27h-.01Z" fill="#e83f4b" stroke-width="0"/><path d="M206.07,74.69v-9c1.3,0,2.4-.07,3.31-.22.91-.14,1.63-.42,2.16-.83s.91-1.01,1.15-1.8c.24-.79.36-1.81.36-3.06V14.85h12.89v45.5c0,3.17-.4,5.82-1.19,7.96s-2.17,3.73-4.14,4.79c-1.97,1.05-4.73,1.58-8.28,1.58h-6.26Z" fill="#e83f4b" stroke-width="0"/><path d="M231.78,73.17l11.02-58.32h14.69l10.87,58.32h-11.88l-1.94-12.31h-8.57l-2.02,12.31h-12.17,0ZM247.12,53.16h6.19l-3.1-22.75-3.1,22.75h.01Z" fill="#e83f4b" stroke-width="0"/><path d="M18.75,20.5c.13-.3.39-.53.8-.71.41-.17.83-.26,1.28-.26s.84.12,1.19.35c.34.24.55.61.64,1.12l.38,3.53c.81-.17,1.77-.52,2.88-1.06,1.11-.53,2.4-1.06,3.88-1.57s3.13-.94,4.97-1.28,3.89-.38,6.15-.13c3.5.68,6.05,1.5,7.63,2.44s2.42,1.98,2.53,3.11c.11,1.13-.36,2.35-1.41,3.65s-2.45,2.62-4.2,3.94c-1.75,1.33-3.72,2.67-5.9,4.04-2.18,1.37-4.31,2.68-6.38,3.94s-4,2.46-5.77,3.59-3.11,2.17-4.01,3.11l30.06,18.08c0,.68-.28,1.34-.83,1.96-.56.62-1.2.89-1.92.8l-28.27-16.28v21.28c-.51.43-.95.71-1.31.83-.36.13-.65.17-.87.13-.21-.04-.41-.16-.58-.35-.17-.19-.32-.4-.45-.61l-.51-53.65h.02ZM23.04,29.35c-.09.86-.15,1.88-.19,3.08s-.06,2.47-.06,3.81v7.47c.21-.21.89-.61,2.02-1.19,1.13-.58,2.51-1.29,4.13-2.15,1.62-.85,3.37-1.8,5.22-2.85,1.86-1.05,3.62-2.13,5.29-3.24,1.67-1.11,3.13-2.21,4.39-3.3s2.07-2.1,2.44-3.04c.36-.94.17-1.78-.58-2.53s-2.28-1.33-4.58-1.76c-1.28-.09-2.79-.04-4.52.13s-3.46.48-5.19.93-3.34,1.06-4.84,1.83-2.67,1.71-3.53,2.82h0Z" fill="#e83f4b" stroke-width="0"/><path d="M57.53,57.04c-.3.26-.82.35-1.57.29-.75-.06-1.43-.22-2.05-.48s-1.04-.61-1.25-1.06.04-.97.77-1.57c.3-.26.63-.44.99-.54.36-.11.73-.21,1.09-.32s.66-.27.9-.48c.23-.21.37-.55.42-1.03.04-1.92.2-3.89.48-5.9.28-2.01.8-3.8,1.57-5.38s1.87-2.84,3.3-3.78,3.32-1.3,5.67-1.09c.85,0,1.82.2,2.88.61,1.07.41,2.09.94,3.08,1.6.98.66,1.84,1.45,2.56,2.37.73.92,1.17,1.91,1.35,2.98.3.43.13.96-.51,1.6s-1.54,1.36-2.69,2.15-2.46,1.59-3.91,2.4c-1.45.81-2.85,1.58-4.2,2.31s-2.53,1.37-3.56,1.92c-1.03.56-1.69.94-1.99,1.15.26,1.67.53,3.42.83,5.26.3,1.84.73,3.53,1.28,5.06.55,1.54,1.25,2.81,2.08,3.81s1.89,1.51,3.17,1.51c1.88.13,3.49-.15,4.84-.83s2.47-1.58,3.37-2.69,1.61-2.33,2.15-3.65c.53-1.32.94-2.58,1.22-3.78.28-1.2.47-2.21.58-3.04s.2-1.29.29-1.38c.47-.26,1-.27,1.6-.03s.94.87,1.03,1.89c.04,1.67-.32,3.57-1.09,5.7-.77,2.14-1.83,4.1-3.17,5.9s-2.95,3.24-4.81,4.33-3.84,1.46-5.93,1.12c-2.18-.04-3.91-.67-5.19-1.89s-2.3-2.69-3.04-4.42c-.75-1.73-1.29-3.56-1.63-5.48-.34-1.92-.64-3.63-.9-5.13h0ZM74.33,43.26c-1.37-1.88-2.76-3.08-4.17-3.59s-2.86-.66-4.36-.45c-.9.13-1.69.54-2.37,1.25-.68.71-1.24,1.6-1.67,2.69-.43,1.09-.73,2.31-.9,3.65-.17,1.35-.19,2.72-.06,4.13l13.53-7.69h0Z" fill="#e83f4b" stroke-width="0"/></svg>